<svg width="1153" height="1188" viewBox="0 0 1153 1188" fill="none" xmlns="http://www.w3.org/2000/svg">
<path d="M746.81 145.365L746.34 145.405C746.06 145.425 745.78 145.565 745.54 145.795C693.7 197.268 642.04 248.922 590.56 300.755C590.507 300.815 588.84 302.412 585.56 305.545C583.013 307.985 580.667 310.605 578.52 313.405C577.94 313.098 577.473 313.118 577.12 313.465C515.307 374.832 442.267 447.875 358 532.595C333.587 557.135 297.54 593.098 249.86 640.485C249.82 640.525 249.043 641.218 247.53 642.565C245.27 644.578 243.85 647.108 243.27 650.155C242.877 648.488 242.077 648.258 240.87 649.465C161.143 729.158 81.4567 808.888 1.81 888.655C1.17 889.295 0.809998 890.015 0.809998 890.655L0.769989 900.405C0.676656 897.278 0.53333 894.155 0.339996 891.035C0.11333 887.488 0 884.362 0 881.655C0.0666667 799.488 0.0866642 717.322 0.0599976 635.155C0.0599976 628.795 0.133332 622.128 0.279999 615.155C0.413332 608.488 0.536661 601.818 0.649994 595.145C0.803327 586.052 1.20665 579.408 1.85999 575.215C4.53332 558.108 11.5367 542.775 22.87 529.215C25.5233 526.042 30.5233 520.788 37.87 513.455C203.19 348.361 368.4 183.158 533.5 17.8448C538.66 12.6715 544.64 8.52484 551.44 5.40484C557.447 2.6515 563.86 0.951503 570.68 0.304836C586.04 -1.1485 599.85 2.59484 612.11 11.5348C615.07 13.6948 619.973 18.1948 626.82 25.0348C665.14 63.3348 703.45 101.645 741.75 139.965C744.203 142.425 745.89 144.225 746.81 145.365Z" fill="#424242"/>
<path d="M746.81 145.365C760.883 159.005 774.783 172.822 788.51 186.815C794.157 192.568 798.843 197.308 802.57 201.035C909.037 307.388 1015.41 413.838 1121.68 520.385C1127.8 526.518 1132.21 531.498 1134.92 535.325C1146.51 551.738 1152.31 570.765 1152.31 592.405C1152.31 769.405 1152.39 946.405 1152.55 1123.4C1152.58 1148.2 1142.31 1166.84 1121.75 1179.34C1114.62 1183.68 1106.88 1186.28 1098.55 1187.16C1097.03 1187.32 1090.36 1187.4 1078.55 1187.4C1022.47 1187.42 966.39 1187.41 910.31 1187.36C909.957 1182.44 909.79 1175.45 909.81 1166.4C909.863 1143.27 909.85 1069.44 909.77 944.905L909.75 645.465C909.75 645.145 909.63 644.835 909.42 644.585C907.187 642.032 904.853 639.575 902.42 637.215C898.633 633.535 896.713 631.671 896.66 631.625C790.773 525.391 684.727 419.318 578.52 313.405C580.667 310.605 583.013 307.985 585.56 305.545C588.84 302.412 590.507 300.815 590.56 300.755C642.04 248.922 693.7 197.268 745.54 145.795C745.78 145.565 746.06 145.425 746.34 145.405L746.81 145.365Z" fill="#6D6D6D"/>
<path d="M243.27 650.155L243.35 944.905L243.31 1187.36C182.23 1187.41 121.147 1187.41 60.06 1187.36C53.0533 1187.36 46.3967 1186.15 40.09 1183.73C34.2433 1181.49 28.56 1178.07 23.04 1173.47C9.01334 1161.78 1.61333 1146.42 0.839994 1127.4C0.806661 1126.64 0.733326 1122.64 0.619993 1115.41C0.573326 1112.74 0.586668 1110.07 0.660001 1107.4C0.760001 1103.66 0.809995 1100.99 0.809995 1099.4C0.829995 1033.07 0.816653 966.738 0.769987 900.405L0.809995 890.655C0.809995 890.015 1.17 889.295 1.81 888.655C81.4567 808.888 161.143 729.158 240.87 649.465C242.077 648.258 242.877 648.488 243.27 650.155Z" fill="#898989"/>
<path d="M909.77 944.905C909.85 1069.44 909.863 1143.27 909.81 1166.4C909.79 1175.45 909.957 1182.44 910.31 1187.36C907.923 1187.62 905.537 1187.71 903.15 1187.63C898.75 1187.48 896.52 1187.4 896.46 1187.4C678.747 1187.42 461.03 1187.41 243.31 1187.36L243.35 944.905C267.09 944.765 290.827 944.702 314.56 944.715C483.56 944.842 652.56 944.905 821.56 944.905C827.073 944.905 833.743 944.882 841.57 944.835C864.303 944.708 887.037 944.732 909.77 944.905Z" fill="#323232"/>
</svg>
